<svg width="71" height="71" viewbox="0 0 71 71" xmlns="http://www.w3.org/2000/svg" xmlns:xlink="http://www.w3.org/1999/xlink"><defs><filter x="-18.6%" y="-11.8%" width="137.1%" height="137.1%" filterUnits="objectBoundingBox" id="a"><feOffset dy="4" in="SourceAlpha" result="shadowOffsetOuter1"/><feGaussianBlur stdDeviation="3" in="shadowOffsetOuter1" result="shadowBlurOuter1"/><feColorMatrix values="0 0 0 0 0 0 0 0 0 0 0 0 0 0 0 0 0 0 0.03 0" in="shadowBlurOuter1"/></filter><filter x="-21.7%" y="-13.8%" width="143.4%" height="143.4%" filterUnits="objectBoundingBox" id="c"><feOffset dy="4" in="SourceAlpha" result="shadowOffsetOuter1"/><feGaussianBlur stdDeviation="3" in="shadowOffsetOuter1" result="shadowBlurOuter1"/><feColorMatrix values="0 0 0 0 0 0 0 0 0 0 0 0 0 0 0 0 0 0 0.04 0" in="shadowBlurOuter1"/></filter><filter x="-13.1%" y="-7.3%" width="126.1%" height="120.3%" filterUnits="objectBoundingBox" id="f"><feOffset dy="1" in="SourceAlpha" result="shadowOffsetOuter1"/><feGaussianBlur stdDeviation="1" in="shadowOffsetOuter1" result="shadowBlurOuter1"/><feComposite in="shadowBlurOuter1" in2="SourceAlpha" operator="out" result="shadowBlurOuter1"/><feColorMatrix values="0 0 0 0 0 0 0 0 0 0 0 0 0 0 0 0 0 0 0.11 0" in="shadowBlurOuter1"/></filter><circle id="b" cx="29.645" cy="29.645" r="29.645"/><circle id="d" cx="29.645" cy="29.645" r="25.333"/><linearGradient x1="50%" y1="0%" x2="50%" y2="100%" id="e"><stop stop-color="#FFF" offset="0%"/><stop stop-color="#FFF" stop-opacity="0" offset="70.898%"/></linearGradient><rect id="g" x="0" y="0" width="26.797" height="34.453" rx="1.286"/></defs><g fill="none" fill-rule="evenodd"><g transform="translate(6 2)"><use fill="#000" filter="url(#a)" xlink:href="#b"/><use fill="#DCF2FB" xlink:href="#b"/></g><g transform="translate(6 2)"><use fill="#000" filter="url(#c)" xlink:href="#d"/><use fill="#C5EEFF" xlink:href="#d"/></g><path d="M20.182 16.643h21.326c.598 0 1.083.485 1.083 1.084v18.25c0 .598-.485 1.083-1.083 1.083H32.65c-.358 0-.692-.176-.894-.472l-12.467-18.25a1.083 1.083 0 01.894-1.695z" fill="url(#e)" opacity=".663" transform="translate(6 2)"/><g transform="translate(21 14)"><rect stroke="#F3F3F3" stroke-width=".69" fill="#F3F3F3" x="4.173" y="2.897" width="26.108" height="33.764" rx="1.286"/><use fill="#000" filter="url(#f)" xlink:href="#g"/><rect stroke="#FFF" stroke-width=".69" stroke-linejoin="square" fill="#FFF" x=".345" y=".345" width="26.108" height="33.764" rx="1.286"/><g><path stroke="#CFCFD1" stroke-width=".69" d="M3.828 21.055H23.03M3.828 24.883H23.03M3.828 28.712H23.03M3.865 17.227H10.2 3.865z"/><path d="M22.625 17.557c-5.5-.137-9.375-.205-11.625-.205" stroke="#E8E8E8" stroke-width="1.25"/></g></g><path stroke="#CFCFD1" stroke-width=".69" d="M24.865 27.626h4.188"/><path stroke="#E8E8E8" stroke-width="1.25" d="M30 27.626l13.5-.126"/><path stroke="#CFCFD1" stroke-width=".69" d="M24.865 23.5h4.188"/><path stroke="#E8E8E8" stroke-width="1.25" d="M30 23.5h4.188"/><path stroke="#E8E8E8" stroke-width=".69" d="M24.865 19.5H29.5"/><path stroke="#CFCFD1" stroke-width="1.25" d="M30 19.5h3.5"/><path d="M19.052 12h21.326c.598 0 1.083.485 1.083 1.083v18.25c0 .599-.485 1.084-1.083 1.084h-8.86c-.357 0-.692-.177-.894-.472l-12.467-18.25A1.083 1.083 0 0119.052 12z" fill="url(#e)" opacity=".663" transform="translate(6 2)"/><g><g transform="translate(33 18)"><circle stroke="#009B1F" fill="#00B937" cx="6.5" cy="6.5" r="6"/><path d="M6.003 3.388c-1.183.216-1.846.908-1.846 1.772 0 .951.805 1.47 1.94 1.815.805.26 1.137.476 1.137.864 0 .389-.427.606-1.042.606-.71 0-1.325-.217-1.798-.433L4.062 9.18c.426.216 1.136.389 1.846.431v.951h1.089V9.526c1.23-.216 1.94-.95 1.94-1.815 0-.907-.52-1.426-1.798-1.858-.947-.302-1.325-.519-1.325-.864 0-.26.236-.562.946-.562.805 0 1.278.216 1.562.346l.332-1.124c-.38-.172-.852-.302-1.563-.345v-.865H6.003v.95z" fill="#FFF"/></g><path d="M48.534 24.077a9.144 9.144 0 10-18.263.94 9.144 9.144 0 0018.263-.94z" opacity=".325"/><path fill="#1294EF" d="M52.003 34.206l-3.813-3.44-1.475 1.635 3.814 3.44z"/><path fill="#2AA2F6" d="M50.902 33.213l-1.611-1.454-1.475 1.635 1.611 1.453z"/><path d="M49.741 37.56a1.131 1.131 0 01-.082-1.597l2.542-2.818a1.13 1.13 0 011.598-.083l9.306 8.467-4.117 4.444-9.247-8.413z" fill="#1294EF"/><path d="M60.598 47.426l-1.61-1.453 4.117-4.444 1.55 1.399c.464.418.501 1.134.083 1.597l-2.542 2.819c-.419.463-1.134.5-1.598.082L72.823 45" fill="#2AA2F6"/><path d="M52.201 33.145l-1.14 1.264 10.127 9.188 1.917-2.068-9.306-8.467a1.13 1.13 0 00-1.598.083" fill="#2AA2F6"/><path d="M63.6 45.786l1.138-1.26a1.13 1.13 0 00-.082-1.598l-1.551-1.4-1.917 2.07 2.413 2.188zM48.534 24.077a9.143 9.143 0 11-18.263.94 9.143 9.143 0 0118.263-.94m-20.519 1.056c.324 6.289 5.685 11.125 11.974 10.801 6.289-.324 11.125-5.684 10.801-11.973-.323-6.29-5.684-11.125-11.973-10.802-6.29.324-11.125 5.685-10.802 11.974" fill="#1294EF"/><path d="M48.534 24.077a9.176 9.176 0 01-.099 1.894c-.655 4.184-4.165 7.48-8.562 7.707a9.14 9.14 0 01-2.737-.27c-.96.518-1.973.937-3.022 1.24a11.347 11.347 0 005.875 1.286c6.289-.324 11.125-5.684 10.801-11.973-.251-4.884-3.54-8.89-7.943-10.286a15.116 15.116 0 011.497 3.18 9.13 9.13 0 014.19 7.222" fill="#1294EF" opacity=".687"/><path d="M48.534 24.068a9.143 9.143 0 11-18.263.94 9.143 9.143 0 0118.263-.94m-19.03.979c.282 5.466 4.941 9.67 10.408 9.388 5.466-.28 9.67-4.94 9.388-10.407-.281-5.466-4.94-9.67-10.407-9.389-5.466.282-9.67 4.941-9.389 10.408" fill="#72BBEE"/><path d="M44.344 16.856c2.278 6.873-1.505 13.471-7.208 16.551.872.223 1.791.32 2.737.271 4.396-.226 7.907-3.523 8.562-7.707a9.13 9.13 0 00-4.091-9.116" fill-opacity=".147" fill="#00A3FF"/><path d="M32.009 24.036c-.207-2.886 3.2-7.639 8.274-6.973" stroke-opacity=".514" stroke="#FFF" stroke-linecap="round"/></g></g></svg>