<svg width="99" height="98" viewbox="0 0 99 98" xmlns="http://www.w3.org/2000/svg" xmlns:xlink="http://www.w3.org/1999/xlink"><defs><linearGradient x1="50%" y1="0%" x2="50%" y2="100%" id="f"><stop stop-color="#FFF" offset="0%"/><stop stop-color="#FFF" stop-opacity="0" offset="70.898%"/></linearGradient><linearGradient x1="50%" y1="0%" x2="50%" y2="100%" id="n"><stop stop-color="#FFF390" offset="0%"/><stop stop-color="#FFE257" offset="100%"/></linearGradient><linearGradient x1="50%" y1="0%" x2="50%" y2="100%" id="o"><stop stop-color="#FFF390" offset="0%"/><stop stop-color="#FFE257" offset="100%"/></linearGradient><linearGradient x1="50%" y1="0%" x2="50%" y2="100%" id="q"><stop stop-color="#FCE98F" offset="0%"/><stop stop-color="#FEF6C2" offset="100%"/></linearGradient><linearGradient x1="50%" y1="0%" x2="50%" y2="99.464%" id="p"><stop stop-color="#FFF5C5" offset="0%"/><stop stop-color="#FFE04D" offset="100%"/></linearGradient><filter x="-5.4%" y="-4.3%" width="110.8%" height="110.8%" filterUnits="objectBoundingBox" id="a"><feOffset dy="1" in="SourceAlpha" result="shadowOffsetOuter1"/><feGaussianBlur stdDeviation="1.5" in="shadowOffsetOuter1" result="shadowBlurOuter1"/><feComposite in="shadowBlurOuter1" in2="SourceAlpha" operator="out" result="shadowBlurOuter1"/><feColorMatrix values="0 0 0 0 0 0 0 0 0 0 0 0 0 0 0 0 0 0 0.15 0" in="shadowBlurOuter1"/></filter><filter x="-7%" y="-4.4%" width="114%" height="114%" filterUnits="objectBoundingBox" id="c"><feOffset dy="2" in="SourceAlpha" result="shadowOffsetOuter1"/><feGaussianBlur stdDeviation="1.5" in="shadowOffsetOuter1" result="shadowBlurOuter1"/><feColorMatrix values="0 0 0 0 0 0 0 0 0 0 0 0 0 0 0 0 0 0 0.108173077 0" in="shadowBlurOuter1"/></filter><filter x="-24.4%" y="-28.8%" width="148.8%" height="160%" filterUnits="objectBoundingBox" id="e"><feOffset dy="2" in="SourceAlpha" result="shadowOffsetOuter1"/><feGaussianBlur stdDeviation="1.5" in="shadowOffsetOuter1" result="shadowBlurOuter1"/><feColorMatrix values="0 0 0 0 0 0 0 0 0 0 0 0 0 0 0 0 0 0 0.2 0" in="shadowBlurOuter1" result="shadowMatrixOuter1"/><feMerge><feMergeNode in="shadowMatrixOuter1"/><feMergeNode in="SourceGraphic"/></feMerge></filter><filter x="-19.7%" y="-9.8%" width="139.4%" height="130.7%" filterUnits="objectBoundingBox" id="g"><feOffset dy="2" in="SourceAlpha" result="shadowOffsetOuter1"/><feGaussianBlur stdDeviation="1.5" in="shadowOffsetOuter1" result="shadowBlurOuter1"/><feComposite in="shadowBlurOuter1" in2="SourceAlpha" operator="out" result="shadowBlurOuter1"/><feColorMatrix values="0 0 0 0 0 0 0 0 0 0 0 0 0 0 0 0 0 0 0.11 0" in="shadowBlurOuter1"/></filter><filter x="-85.7%" y="-63.2%" width="271.4%" height="226.3%" filterUnits="objectBoundingBox" id="m"><feOffset dy="2" in="SourceAlpha" result="shadowOffsetOuter1"/><feGaussianBlur stdDeviation="2" in="shadowOffsetOuter1" result="shadowBlurOuter1"/><feColorMatrix values="0 0 0 0 0 0 0 0 0 0 0 0 0 0 0 0 0 0 0.160620629 0" in="shadowBlurOuter1" result="shadowMatrixOuter1"/><feMerge><feMergeNode in="shadowMatrixOuter1"/><feMergeNode in="SourceGraphic"/></feMerge></filter><circle id="b" cx="46.131" cy="46.131" r="46.131"/><circle id="d" cx="46.131" cy="46.131" r="39.421"/><path id="i" d="M.274.027h6.353v6H.274z"/><path id="k" d="M0 .277h4.401v3.277H0z"/><rect id="h" x="0" y="0" width="27.9" height="35.871" rx="1.339"/></defs><g fill="none" fill-rule="evenodd"><g transform="translate(3 2)"><use fill="#000" filter="url(#a)" xlink:href="#b"/><use fill-opacity=".427" fill="#1294EF" xlink:href="#b"/></g><g transform="translate(3 2)"><use fill="#000" filter="url(#c)" xlink:href="#d"/><use fill="#1294EF" xlink:href="#d"/></g><g filter="url(#e)" transform="translate(23.088 28.04)"><path d="M12.589 3.268h26.367c.74 0 1.339.6 1.339 1.34v22.564c0 .74-.6 1.34-1.34 1.34H28.004a1.34 1.34 0 01-1.106-.585L11.483 5.363a1.34 1.34 0 011.106-2.095z" fill="url(#f)" opacity=".663"/><g transform="translate(10.717 .611)"><rect stroke="#F3F3F3" stroke-width=".67" fill="#F3F3F3" x="4.321" y="2.992" width="27.23" height="35.202" rx="1.339"/><use fill="#000" filter="url(#g)" xlink:href="#h"/><rect stroke="#FFF" stroke-width=".67" stroke-linejoin="square" fill="#FFF" x=".335" y=".335" width="27.23" height="35.202" rx="1.339" /><g stroke="#CFCFD1" stroke-width=".67"><path d="M3.986 5.978h19.99M3.986 9.895h19.99"/></g><g stroke="#CFCFD1" stroke-width=".67"><path d="M3.986 13.95h19.99M3.986 17.936h19.99M3.986 21.922h19.99M3.986 25.907h19.99M3.986 29.893h19.99"/></g></g><path d="M1.303 12.388c-.153-.662-.303-1.109-.449-1.34-.145-.231-.43-.473-.854-.727.41-.271.695-.537.854-.798.16-.261.31-.707.45-1.339.08.587.202 1.01.365 1.268.163.258.49.548.981.87-.419.251-.704.494-.856.726-.151.232-.315.68-.49 1.34zM5.608 16.779c-.193-.83-.38-1.39-.563-1.68-.182-.289-.54-.593-1.07-.91.514-.34.87-.673 1.07-1 .2-.328.387-.887.563-1.678.101.735.254 1.264.458 1.588.204.324.614.688 1.23 1.09-.526.316-.883.62-1.073.91-.19.292-.395.852-.615 1.68zM1.97 17.604c-.076-.332-.151-.556-.224-.672-.073-.116-.216-.237-.429-.365.206-.135.349-.269.429-.4.08-.13.154-.354.225-.67.04.293.101.505.183.635.082.13.246.275.492.436-.21.126-.353.247-.43.364-.075.116-.157.34-.245.672z" fill="#F3F3F3"/></g><path d="M22.137 25.982a.844.844 0 00-.216.636c.016.238.112.488.286.749.175.26.41.52.705.776.478.413.909.657 1.292.73a.946.946 0 00.953-.328c.126-.146.228-.306.305-.48.076-.175.144-.365.201-.57l.747.647c-.05.205-.124.401-.223.588a2.946 2.946 0 01-.39.56c-.47.544-1.023.786-1.66.726-.635-.058-1.302-.39-1.999-.992-.433-.376-.76-.774-.983-1.197-.222-.423-.32-.843-.295-1.261.025-.417.195-.808.51-1.173.32-.368.72-.642 1.2-.82l.485.865c-.179.058-.347.13-.506.215a1.44 1.44 0 00-.412.329M27.628 24.16l-1.212-.888c-.136-.11-.282-.224-.44-.343a7.105 7.105 0 01-.407-.328c.077.123.165.275.262.456.099.181.184.342.256.485l.698 1.337.843-.72zm1.938 1.44l-1.143-.83-1.16.99.64 1.26-.928.792-2.526-5.397 1.094-.934 4.946 3.333-.923.786zM29.82 19.585l-.226.139.867 1.401.245-.152c.488-.301.58-.7.275-1.19-.14-.228-.306-.358-.495-.388-.19-.032-.412.032-.667.19zm-.472-.823c.578-.358 1.081-.506 1.508-.442.426.063.788.334 1.084.812.191.31.288.614.29.913.002.298-.077.587-.237.868l2.458 1.438-1.066.659-2.085-1.337-.361.224 1.175 1.9-.964.596-3.019-4.879 1.217-.752zM36.228 21.576l-1.029.456-2.325-5.245 2.541-1.127.387.874-1.512.67.622 1.404 1.41-.625.387.874-1.41.625zM40.21 17.656l-.738-1.31c-.078-.155-.165-.32-.26-.493a6.99 6.99 0 01-.235-.468c.02.145.037.32.051.526.015.204.026.387.033.546l.084 1.506 1.066-.307zm1.173 2.112l-.7-1.23-1.466.425.065 1.412-1.173.339-.076-5.958 1.382-.4 3.133 5.074-1.165.338zM46.958 18.837l-1.226.164-1.157-1.855-.65 2.097-1.18.159L43.8 16.31l-1.711-2.608 1.194-.16 1.055 1.764.538-1.978 1.195-.16-.964 2.975zM52.177 14.133a.846.846 0 00-.64.206c-.182.156-.325.382-.43.677a3.974 3.974 0 00-.201 1.028c-.048.63.014 1.122.183 1.473.17.351.448.54.833.57.191.014.38 0 .566-.043.186-.043.378-.102.578-.178l-.074.985c-.194.082-.396.14-.605.173-.21.033-.437.04-.682.021-.716-.053-1.241-.353-1.573-.899-.332-.545-.464-1.278-.396-2.197.043-.572.167-1.073.374-1.502.207-.432.486-.761.836-.99.35-.23.765-.326 1.246-.29.486.037.945.195 1.375.474l-.406.904a3.13 3.13 0 00-.475-.277 1.46 1.46 0 00-.51-.135M56.911 17.454l-.01-1.503c.007-.175.011-.36.012-.558.002-.197.009-.371.022-.523a8.911 8.911 0 01-.21.484c-.087.187-.166.351-.237.494l-.658 1.358 1.081.248zm-.001 2.414l-.014-1.413-1.489-.34-.627 1.266-1.19-.273 2.825-5.247 1.402.321.275 5.958-1.182-.272zM62.775 22.056l-1.263-.543-.146-4.53-.028-.012c-.093.27-.182.513-.268.734-.085.22-.166.424-.24.613l-1.053 2.452-.96-.412 2.263-5.273 1.248.536.177 4.457.022.01.264-.697c.081-.218.158-.417.23-.596l1.042-2.43.974.42-2.262 5.27zM67.153 21.898l.484-1.423c.064-.162.13-.336.195-.523.066-.186.13-.348.192-.486a9.16 9.16 0 01-.357.387c-.144.148-.272.277-.386.389l-1.067 1.066.94.59zm-.795 2.28l.45-1.34-1.292-.81-1.01.99-1.034-.65 4.393-4.027 1.22.765-1.699 5.716-1.028-.644zM72.018 24.974c.421-.478.651-.9.69-1.265.04-.365-.093-.682-.4-.952l-.313-.275-2.505 2.848.247.217c.342.302.7.403 1.074.307.373-.096.775-.389 1.207-.88m.907.745c-.634.72-1.282 1.125-1.947 1.214-.664.09-1.301-.133-1.912-.67l-1.074-.945 3.79-4.308 1.157 1.02c.572.502.862 1.072.87 1.71.009.64-.286 1.3-.884 1.979" fill="#FFF"/><g transform="translate(71.076 25.84)"><mask id="j" fill="#fff"><use xlink:href="#i"/></mask><path d="M3.916 3.177l.907-1.198c.112-.134.228-.278.35-.434.122-.156.233-.29.335-.402-.125.075-.279.16-.461.256-.182.094-.345.176-.489.247l-1.349.676.707.855zM2.444 5.091l.849-1.129-.973-1.177-1.268.621-.778-.942L5.712.027l.915 1.108-3.411 4.891-.772-.935z" fill="#FFF" mask="url(#j)"/></g><g><g transform="translate(16.392 58.937)"><mask id="l" fill="#fff"><use xlink:href="#k"/></mask><path d="M3.625 1.579a.577.577 0 00-.337-.353 1.248 1.248 0 00-.594-.065 3.172 3.172 0 00-.763.184c-.45.164-.77.357-.96.582-.189.223-.238.462-.147.716.05.133.116.253.201.358.086.106.18.207.283.302l-.691.25a1.922 1.922 0 01-.51-.786c-.177-.487-.134-.929.128-1.326.262-.395.725-.714 1.39-.956.4-.145.78-.215 1.14-.208.358.007.67.092.932.256s.454.412.574.743c.127.35.161.703.102 1.057l-.726-.003c.03-.13.045-.256.046-.38 0-.122-.023-.246-.068-.371" fill="#FFF" mask="url(#l)"/></g><path d="M19.728 64.477l.9-.74c.231-.177.44-.332.629-.466-.21.083-.455.16-.735.23l-1.136.307.342.67zm-1.392 1.13l.816-.684-.466-.91-1.03.26-.43-.842 4.337-.967.518 1.014-3.318 2.965-.427-.836zM21.168 69.994l-.594-.847 1.685-2.824-.015-.022a14.754 14.754 0 01-.794.621l-1.633 1.145-.473-.673 3.523-2.472.591.843-1.634 2.78.014.022c.156-.127.3-.24.428-.34.128-.101.243-.187.345-.259l1.604-1.124.477.679-3.524 2.47zM24.562 71.187l.662-.96c.174-.23.333-.438.478-.619-.18.138-.395.28-.644.423l-1.01.606.514.55zm-1.03 1.468l.597-.88-.697-.748-.921.531-.644-.692 3.908-2.117.776.833-2.38 3.76-.64-.687zM27.903 73.659c.31-.372.48-.689.51-.954.03-.264-.065-.488-.285-.672l-.193-.16-1.832 2.199.148.124c.243.202.5.26.77.17.269-.09.564-.325.882-.707m.72.552c-.46.552-.934.875-1.422.968-.488.093-.957-.048-1.408-.424l-.83-.691 2.755-3.307.878.733c.436.363.656.777.662 1.246.007.468-.205.96-.635 1.475M29.51 77.503l-1.436-.963.25-.372.445.097 1.714-2.55-.259-.378.25-.37 1.435.965-.248.37-.446-.097-1.715 2.552.258.377zM32.808 77.378l.321-1.122c.089-.276.173-.523.252-.74-.125.188-.283.39-.474.607l-.76.898.661.357zm-.503 1.72l.282-1.025-.9-.485-.7.8-.833-.45 3.021-3.259 1.001.54-1.046 4.325-.825-.447zM37.065 81.133l-.965-.374-.166-3.284-.024-.01c-.06.202-.116.382-.17.543-.053.16-.102.298-.147.415l-.721 1.86-.768-.299 1.558-4.01.959.372.183 3.22.024.008.168-.52c.051-.154.099-.29.144-.405l.71-1.826.772.3-1.557 4.01zM39.978 81.958l.927-4.201.86.19-.772 3.5 1.193.263-.155.701zM44.55 82.78l-1.713-.238.062-.441.443-.11.422-3.044-.397-.225.062-.442 1.713.237-.061.442-.444.109-.423 3.045.398.225zM47.756 83.013l-2.061-.118.244-4.296 2.061.118-.04.703-1.181-.067-.058 1.011 1.098.063-.04.704-1.098-.063-.066 1.162 1.181.067zM52.208 82.884l-1.035.051-1.492-2.93-.026.002c.028.207.05.395.066.563.017.168.03.315.036.44l.1 1.992-.822.04-.216-4.296 1.028-.053 1.482 2.864h.026c-.022-.2-.043-.382-.059-.543a7.517 7.517 0 01-.034-.43l-.1-1.956.83-.042.216 4.298zM56.22 79.781l1.402-.301.47 2.191c-.389.25-.818.424-1.287.524-.37.08-.697.058-.985-.065a1.646 1.646 0 01-.725-.633c-.196-.3-.34-.67-.436-1.115-.095-.436-.105-.83-.031-1.183.072-.353.227-.647.464-.882.236-.237.552-.396.946-.481a2.427 2.427 0 011.17.025l-.11.72c-.297-.1-.59-.12-.88-.056-.322.069-.54.249-.65.54-.11.29-.115.674-.011 1.149.094.444.238.782.43 1.013a.69.69 0 00.723.255 1.52 1.52 0 00.426-.159l-.21-.978-.56.12-.147-.684zM60.737 76.498l.937 2.731c.16.467.165.856.017 1.167-.15.31-.446.54-.887.693-.43.147-.8.147-1.11-.002-.309-.15-.543-.455-.702-.92l-.943-2.746.833-.286.934 2.719c.088.258.195.427.32.507.125.081.27.092.437.036.174-.06.285-.159.333-.296.048-.137.027-.34-.064-.605l-.931-2.714.826-.284zM64.162 77.79l-.702-.93c-.165-.239-.31-.454-.437-.648.073.213.14.462.2.744l.256 1.148.683-.313zm1.07 1.44l-.648-.843-.93.425.216 1.042-.86.393-.78-4.375 1.035-.473 2.82 3.44-.853.391zM66.059 74.704l-.155.092.644 1.089.171-.101c.343-.203.4-.498.171-.885-.2-.339-.477-.404-.831-.195zm-.35-.604c.866-.514 1.51-.412 1.935.304.134.228.206.452.213.669.006.217-.055.44-.186.666l1.777 1.148-.836.495-1.507-1.07-.226.133.86 1.453-.76.448-2.19-3.703.92-.543zM70.58 73.902l-.881-.764a21.79 21.79 0 01-.563-.542c.117.194.233.423.35.686l.49 1.069.604-.45zm1.346 1.184l-.81-.69-.82.612.428.973-.758.564-1.677-4.116.913-.679 3.478 2.776-.754.56zM75.796 71.657l-.752.71-3.039-1.256-.018.017c.156.14.295.269.418.386.121.116.225.22.31.31l1.37 1.45-.596.565-2.957-3.126.747-.707 2.99 1.213.017-.018c-.148-.136-.28-.262-.398-.373a8.78 8.78 0 01-.306-.304L72.237 69.1l.603-.57 2.956 3.126zM77.673 69.514l-.562.662-2.734-2.32-.553.653-.547-.464 1.663-1.962.547.464-.548.648zM80.057 66.307l-1.184 1.69-3.524-2.467 1.183-1.69.578.404-.678.97.829.579.631-.9.577.405-.63.9.952.667.679-.969zM81.743 63.452l-1.02 1.794-3.74-2.128 1.02-1.794.613.35-.585 1.027.88.5.544-.955.613.35-.544.954 1.01.576.585-1.029z" fill="#FFF"/></g><g filter="url(#m)" transform="translate(54.884 53.884)"><path stroke="url(#n)" stroke-width=".979" fill="#FFDA44" stroke-linecap="round" stroke-linejoin="round" d="M10.55 12.2l2.176 3.589H10.14L8.76 18.074 6.561 14.67l-1.036-1.608"/><path stroke="url(#o)" stroke-width=".979" fill="#FFDA44" stroke-linecap="round" stroke-linejoin="round" d="M6.853 13.238L5.51 18.074l-1.746-2.263-2.786.958 1.612-4.568"/><circle stroke="url(#p)" stroke-width=".979" fill="url(#q)" cx="6.853" cy="6.853" r="6.363"/><circle fill="#F8D548" cx="6.853" cy="6.853" r="4.895"/><path stroke="#F3F3F3" stroke-width=".979" stroke-linecap="round" stroke-linejoin="round" d="M4.875 6.952l1.527 1.354L8.79 5.37"/></g></g></svg>